<mxfile host="app.diagrams.net" agent="Mozilla/5.0 (Windows NT 10.0; Win64; x64) AppleWebKit/537.36 (KHTML, like Gecko) Chrome/133.0.0.0 Safari/537.36" version="26.0.15">
  <diagram id="C5RBs43oDa-KdzZeNtuy" name="Page-1">
    <mxGraphModel dx="2074" dy="1098" grid="0" gridSize="10" guides="1" tooltips="1" connect="1" arrows="1" fold="1" page="1" pageScale="1" pageWidth="827" pageHeight="1169" background="none" math="0" shadow="0">
      <root>
        <mxCell id="WIyWlLk6GJQsqaUBKTNV-0" />
        <mxCell id="WIyWlLk6GJQsqaUBKTNV-1" parent="WIyWlLk6GJQsqaUBKTNV-0" />
        <mxCell id="5mfjMf9R6jpQZcoLT1Og-1" value="&lt;h1&gt;Planning&lt;/h1&gt;" style="rounded=1;whiteSpace=wrap;html=1;fontStyle=1;labelBackgroundColor=none;shadow=0;direction=east;verticalAlign=middle;labelPosition=center;verticalLabelPosition=middle;align=center;textDirection=ltr;spacingRight=0;spacingTop=0;" vertex="1" parent="WIyWlLk6GJQsqaUBKTNV-1">
          <mxGeometry x="326" y="115" width="387" height="278" as="geometry" />
        </mxCell>
        <mxCell id="5mfjMf9R6jpQZcoLT1Og-2" value="" style="rounded=1;whiteSpace=wrap;html=1;" vertex="1" parent="WIyWlLk6GJQsqaUBKTNV-1">
          <mxGeometry x="97" y="577" width="152" height="380" as="geometry" />
        </mxCell>
        <mxCell id="5mfjMf9R6jpQZcoLT1Og-3" value="" style="rounded=1;whiteSpace=wrap;html=1;labelBackgroundColor=default;" vertex="1" parent="WIyWlLk6GJQsqaUBKTNV-1">
          <mxGeometry x="188" y="100" width="215" height="56" as="geometry" />
        </mxCell>
        <mxCell id="5mfjMf9R6jpQZcoLT1Og-6" value="" style="rounded=1;whiteSpace=wrap;html=1;" vertex="1" parent="WIyWlLk6GJQsqaUBKTNV-1">
          <mxGeometry x="188" y="178" width="215" height="56" as="geometry" />
        </mxCell>
        <mxCell id="5mfjMf9R6jpQZcoLT1Og-7" value="" style="rounded=1;whiteSpace=wrap;html=1;" vertex="1" parent="WIyWlLk6GJQsqaUBKTNV-1">
          <mxGeometry x="188" y="254" width="215" height="56" as="geometry" />
        </mxCell>
      </root>
    </mxGraphModel>
  </diagram>
</mxfile>
